<mxfile host="app.diagrams.net" modified="2022-08-11T14:09:36.435Z" agent="5.0 (Macintosh)" etag="pMIrguvfi3ZAwLC5o0hj" version="20.0.4" type="github">
  <diagram name="Page-1" id="58cdce13-f638-feb5-8d6f-7d28b1aa9fa0">
    <mxGraphModel dx="3166" dy="1155" grid="1" gridSize="10" guides="1" tooltips="1" connect="1" arrows="1" fold="1" page="1" pageScale="1" pageWidth="1100" pageHeight="850" background="none" math="0" shadow="0">
      <root>
        <mxCell id="0" />
        <mxCell id="1" parent="0" />
        <mxCell id="382b91b5511bd0f7-1" value="" style="ellipse;html=1;shape=startState;fillColor=#000000;strokeColor=#ff0000;rounded=1;shadow=0;comic=0;labelBackgroundColor=none;fontFamily=Verdana;fontSize=12;fontColor=#000000;align=center;direction=south;" parent="1" vertex="1">
          <mxGeometry x="130" y="135" width="30" height="30" as="geometry" />
        </mxCell>
        <mxCell id="6KI7RrnHpVsFwjjmGo_1-18" style="edgeStyle=orthogonalEdgeStyle;rounded=0;orthogonalLoop=1;jettySize=auto;html=1;entryX=0.5;entryY=0;entryDx=0;entryDy=0;entryPerimeter=0;" edge="1" parent="1" source="382b91b5511bd0f7-5" target="6KI7RrnHpVsFwjjmGo_1-17">
          <mxGeometry relative="1" as="geometry" />
        </mxCell>
        <mxCell id="382b91b5511bd0f7-5" value="generateB2cOrderConfirmationEmail" style="rounded=1;whiteSpace=wrap;html=1;arcSize=24;fillColor=#ffffc0;strokeColor=#ff0000;shadow=0;comic=0;labelBackgroundColor=none;fontFamily=Verdana;fontSize=12;fontColor=#000000;align=center;" parent="1" vertex="1">
          <mxGeometry x="20" y="650" width="250" height="60" as="geometry" />
        </mxCell>
        <mxCell id="6KI7RrnHpVsFwjjmGo_1-7" style="edgeStyle=orthogonalEdgeStyle;rounded=0;orthogonalLoop=1;jettySize=auto;html=1;entryX=0.5;entryY=0;entryDx=0;entryDy=0;entryPerimeter=0;" edge="1" parent="1" source="382b91b5511bd0f7-6" target="6KI7RrnHpVsFwjjmGo_1-5">
          <mxGeometry relative="1" as="geometry" />
        </mxCell>
        <mxCell id="382b91b5511bd0f7-6" value="createWirecardOrder" style="rounded=1;whiteSpace=wrap;html=1;arcSize=24;fillColor=#ffffc0;strokeColor=#ff0000;shadow=0;comic=0;labelBackgroundColor=none;fontFamily=Verdana;fontSize=12;fontColor=#000000;align=center;" parent="1" vertex="1">
          <mxGeometry x="240" y="120" width="160" height="60" as="geometry" />
        </mxCell>
        <mxCell id="6KI7RrnHpVsFwjjmGo_1-13" value="" style="edgeStyle=orthogonalEdgeStyle;rounded=0;orthogonalLoop=1;jettySize=auto;html=1;" edge="1" parent="1" source="382b91b5511bd0f7-7" target="6KI7RrnHpVsFwjjmGo_1-11">
          <mxGeometry relative="1" as="geometry" />
        </mxCell>
        <mxCell id="382b91b5511bd0f7-7" value="sendOrderToOlymp" style="rounded=1;whiteSpace=wrap;html=1;arcSize=24;fillColor=#ffffc0;strokeColor=#ff0000;shadow=0;comic=0;labelBackgroundColor=none;fontFamily=Verdana;fontSize=12;fontColor=#000000;align=center;" parent="1" vertex="1">
          <mxGeometry x="90" y="400" width="140" height="60" as="geometry" />
        </mxCell>
        <mxCell id="6KI7RrnHpVsFwjjmGo_1-24" style="edgeStyle=orthogonalEdgeStyle;rounded=0;orthogonalLoop=1;jettySize=auto;html=1;entryX=0.5;entryY=0;entryDx=0;entryDy=0;entryPerimeter=0;" edge="1" parent="1" source="382b91b5511bd0f7-9" target="6KI7RrnHpVsFwjjmGo_1-23">
          <mxGeometry relative="1" as="geometry" />
        </mxCell>
        <mxCell id="382b91b5511bd0f7-9" value="removeSentEmail" style="rounded=1;whiteSpace=wrap;html=1;arcSize=24;fillColor=#ffffc0;strokeColor=#ff0000;shadow=0;comic=0;labelBackgroundColor=none;fontFamily=Verdana;fontSize=12;fontColor=#000000;align=center;" parent="1" vertex="1">
          <mxGeometry x="30" y="1020" width="130" height="60" as="geometry" />
        </mxCell>
        <mxCell id="6KI7RrnHpVsFwjjmGo_1-21" style="edgeStyle=orthogonalEdgeStyle;rounded=0;orthogonalLoop=1;jettySize=auto;html=1;entryX=0.5;entryY=0;entryDx=0;entryDy=0;entryPerimeter=0;" edge="1" parent="1" source="382b91b5511bd0f7-10" target="6KI7RrnHpVsFwjjmGo_1-20">
          <mxGeometry relative="1" as="geometry" />
        </mxCell>
        <mxCell id="382b91b5511bd0f7-10" value="sendEmail" style="rounded=1;whiteSpace=wrap;html=1;arcSize=24;fillColor=#ffffc0;strokeColor=#ff0000;shadow=0;comic=0;labelBackgroundColor=none;fontFamily=Verdana;fontSize=12;fontColor=#000000;align=center;" parent="1" vertex="1">
          <mxGeometry x="20" y="790" width="240" height="60" as="geometry" />
        </mxCell>
        <mxCell id="2a3bc250acf0617d-9" style="edgeStyle=orthogonalEdgeStyle;html=1;labelBackgroundColor=none;endArrow=open;endSize=8;strokeColor=#ff0000;fontFamily=Verdana;fontSize=12;align=left;" parent="1" source="382b91b5511bd0f7-1" target="382b91b5511bd0f7-6" edge="1">
          <mxGeometry relative="1" as="geometry" />
        </mxCell>
        <mxCell id="6KI7RrnHpVsFwjjmGo_1-27" style="edgeStyle=orthogonalEdgeStyle;rounded=0;orthogonalLoop=1;jettySize=auto;html=1;entryX=0.5;entryY=0;entryDx=0;entryDy=0;entryPerimeter=0;" edge="1" parent="1" source="6KI7RrnHpVsFwjjmGo_1-2" target="6KI7RrnHpVsFwjjmGo_1-26">
          <mxGeometry relative="1" as="geometry" />
        </mxCell>
        <mxCell id="6KI7RrnHpVsFwjjmGo_1-2" value="checkSendWirecardPdfEmailAction" style="rounded=1;whiteSpace=wrap;html=1;arcSize=24;fillColor=#ffffc0;strokeColor=#ff0000;shadow=0;comic=0;labelBackgroundColor=none;fontFamily=Verdana;fontSize=12;fontColor=#000000;align=center;" vertex="1" parent="1">
          <mxGeometry x="20" y="1160" width="220" height="60" as="geometry" />
        </mxCell>
        <mxCell id="6KI7RrnHpVsFwjjmGo_1-29" style="edgeStyle=orthogonalEdgeStyle;rounded=0;orthogonalLoop=1;jettySize=auto;html=1;" edge="1" parent="1" source="6KI7RrnHpVsFwjjmGo_1-3" target="6KI7RrnHpVsFwjjmGo_1-4">
          <mxGeometry relative="1" as="geometry" />
        </mxCell>
        <mxCell id="6KI7RrnHpVsFwjjmGo_1-3" value="triggerSendWirecardPdfEmailProcessAction" style="rounded=1;whiteSpace=wrap;html=1;arcSize=24;fillColor=#ffffc0;strokeColor=#ff0000;shadow=0;comic=0;labelBackgroundColor=none;fontFamily=Verdana;fontSize=12;fontColor=#000000;align=center;" vertex="1" parent="1">
          <mxGeometry x="-20" y="1360" width="270" height="70" as="geometry" />
        </mxCell>
        <mxCell id="6KI7RrnHpVsFwjjmGo_1-4" value="waitForSendWirecardPdfEmailSubProcess" style="rounded=1;whiteSpace=wrap;html=1;arcSize=24;fillColor=#ffffc0;strokeColor=#ff0000;shadow=0;comic=0;labelBackgroundColor=none;fontFamily=Verdana;fontSize=12;fontColor=#000000;align=center;" vertex="1" parent="1">
          <mxGeometry x="120" y="1490" width="280" height="60" as="geometry" />
        </mxCell>
        <mxCell id="6KI7RrnHpVsFwjjmGo_1-16" style="edgeStyle=orthogonalEdgeStyle;rounded=0;orthogonalLoop=1;jettySize=auto;html=1;entryX=0.5;entryY=0;entryDx=0;entryDy=0;" edge="1" parent="1" source="6KI7RrnHpVsFwjjmGo_1-5" target="382b91b5511bd0f7-7">
          <mxGeometry relative="1" as="geometry" />
        </mxCell>
        <mxCell id="6KI7RrnHpVsFwjjmGo_1-31" style="edgeStyle=orthogonalEdgeStyle;rounded=0;orthogonalLoop=1;jettySize=auto;html=1;entryX=0.5;entryY=0;entryDx=0;entryDy=0;" edge="1" parent="1" source="6KI7RrnHpVsFwjjmGo_1-5" target="6KI7RrnHpVsFwjjmGo_1-8">
          <mxGeometry relative="1" as="geometry" />
        </mxCell>
        <mxCell id="6KI7RrnHpVsFwjjmGo_1-5" value="" style="strokeWidth=2;html=1;shape=mxgraph.flowchart.decision;whiteSpace=wrap;" vertex="1" parent="1">
          <mxGeometry x="270" y="230" width="100" height="80" as="geometry" />
        </mxCell>
        <mxCell id="6KI7RrnHpVsFwjjmGo_1-8" value="" style="ellipse;html=1;shape=endState;fillColor=#000000;strokeColor=#ff0000;" vertex="1" parent="1">
          <mxGeometry x="770" y="660" width="30" height="30" as="geometry" />
        </mxCell>
        <mxCell id="6KI7RrnHpVsFwjjmGo_1-15" style="edgeStyle=orthogonalEdgeStyle;rounded=0;orthogonalLoop=1;jettySize=auto;html=1;entryX=0.5;entryY=0;entryDx=0;entryDy=0;exitX=0;exitY=0.5;exitDx=0;exitDy=0;exitPerimeter=0;" edge="1" parent="1" source="6KI7RrnHpVsFwjjmGo_1-11" target="382b91b5511bd0f7-5">
          <mxGeometry relative="1" as="geometry">
            <Array as="points">
              <mxPoint x="145" y="540" />
            </Array>
          </mxGeometry>
        </mxCell>
        <mxCell id="6KI7RrnHpVsFwjjmGo_1-32" style="edgeStyle=orthogonalEdgeStyle;rounded=0;orthogonalLoop=1;jettySize=auto;html=1;entryX=0;entryY=0;entryDx=0;entryDy=0;" edge="1" parent="1" source="6KI7RrnHpVsFwjjmGo_1-11" target="6KI7RrnHpVsFwjjmGo_1-8">
          <mxGeometry relative="1" as="geometry" />
        </mxCell>
        <mxCell id="6KI7RrnHpVsFwjjmGo_1-11" value="" style="strokeWidth=2;html=1;shape=mxgraph.flowchart.decision;whiteSpace=wrap;" vertex="1" parent="1">
          <mxGeometry x="270" y="490" width="100" height="100" as="geometry" />
        </mxCell>
        <mxCell id="6KI7RrnHpVsFwjjmGo_1-19" style="edgeStyle=orthogonalEdgeStyle;rounded=0;orthogonalLoop=1;jettySize=auto;html=1;entryX=0.529;entryY=0.017;entryDx=0;entryDy=0;entryPerimeter=0;" edge="1" parent="1" source="6KI7RrnHpVsFwjjmGo_1-17" target="382b91b5511bd0f7-10">
          <mxGeometry relative="1" as="geometry" />
        </mxCell>
        <mxCell id="6KI7RrnHpVsFwjjmGo_1-33" style="edgeStyle=orthogonalEdgeStyle;rounded=0;orthogonalLoop=1;jettySize=auto;html=1;entryX=0;entryY=0.5;entryDx=0;entryDy=0;" edge="1" parent="1" source="6KI7RrnHpVsFwjjmGo_1-17" target="6KI7RrnHpVsFwjjmGo_1-8">
          <mxGeometry relative="1" as="geometry" />
        </mxCell>
        <mxCell id="6KI7RrnHpVsFwjjmGo_1-17" value="" style="strokeWidth=2;html=1;shape=mxgraph.flowchart.decision;whiteSpace=wrap;" vertex="1" parent="1">
          <mxGeometry x="280" y="710" width="100" height="100" as="geometry" />
        </mxCell>
        <mxCell id="6KI7RrnHpVsFwjjmGo_1-22" style="edgeStyle=orthogonalEdgeStyle;rounded=0;orthogonalLoop=1;jettySize=auto;html=1;entryX=0.5;entryY=0;entryDx=0;entryDy=0;" edge="1" parent="1" source="6KI7RrnHpVsFwjjmGo_1-20" target="382b91b5511bd0f7-9">
          <mxGeometry relative="1" as="geometry" />
        </mxCell>
        <mxCell id="6KI7RrnHpVsFwjjmGo_1-34" style="edgeStyle=orthogonalEdgeStyle;rounded=0;orthogonalLoop=1;jettySize=auto;html=1;entryX=0;entryY=1;entryDx=0;entryDy=0;" edge="1" parent="1" source="6KI7RrnHpVsFwjjmGo_1-20" target="6KI7RrnHpVsFwjjmGo_1-8">
          <mxGeometry relative="1" as="geometry">
            <Array as="points">
              <mxPoint x="774" y="940" />
            </Array>
          </mxGeometry>
        </mxCell>
        <mxCell id="6KI7RrnHpVsFwjjmGo_1-20" value="" style="strokeWidth=2;html=1;shape=mxgraph.flowchart.decision;whiteSpace=wrap;" vertex="1" parent="1">
          <mxGeometry x="270" y="890" width="100" height="100" as="geometry" />
        </mxCell>
        <mxCell id="6KI7RrnHpVsFwjjmGo_1-25" style="edgeStyle=orthogonalEdgeStyle;rounded=0;orthogonalLoop=1;jettySize=auto;html=1;entryX=0.5;entryY=0;entryDx=0;entryDy=0;" edge="1" parent="1" source="6KI7RrnHpVsFwjjmGo_1-23" target="6KI7RrnHpVsFwjjmGo_1-2">
          <mxGeometry relative="1" as="geometry" />
        </mxCell>
        <mxCell id="6KI7RrnHpVsFwjjmGo_1-35" style="edgeStyle=orthogonalEdgeStyle;rounded=0;orthogonalLoop=1;jettySize=auto;html=1;entryX=1;entryY=0.5;entryDx=0;entryDy=0;" edge="1" parent="1" source="6KI7RrnHpVsFwjjmGo_1-23" target="6KI7RrnHpVsFwjjmGo_1-8">
          <mxGeometry relative="1" as="geometry" />
        </mxCell>
        <mxCell id="6KI7RrnHpVsFwjjmGo_1-23" value="" style="strokeWidth=2;html=1;shape=mxgraph.flowchart.decision;whiteSpace=wrap;" vertex="1" parent="1">
          <mxGeometry x="270" y="1070" width="100" height="100" as="geometry" />
        </mxCell>
        <mxCell id="6KI7RrnHpVsFwjjmGo_1-28" style="edgeStyle=orthogonalEdgeStyle;rounded=0;orthogonalLoop=1;jettySize=auto;html=1;entryX=0.5;entryY=0;entryDx=0;entryDy=0;" edge="1" parent="1" source="6KI7RrnHpVsFwjjmGo_1-26" target="6KI7RrnHpVsFwjjmGo_1-3">
          <mxGeometry relative="1" as="geometry" />
        </mxCell>
        <mxCell id="6KI7RrnHpVsFwjjmGo_1-36" style="edgeStyle=orthogonalEdgeStyle;rounded=0;orthogonalLoop=1;jettySize=auto;html=1;entryX=0.5;entryY=1;entryDx=0;entryDy=0;" edge="1" parent="1" source="6KI7RrnHpVsFwjjmGo_1-26" target="6KI7RrnHpVsFwjjmGo_1-8">
          <mxGeometry relative="1" as="geometry">
            <Array as="points">
              <mxPoint x="900" y="1310" />
              <mxPoint x="900" y="690" />
            </Array>
          </mxGeometry>
        </mxCell>
        <mxCell id="6KI7RrnHpVsFwjjmGo_1-26" value="" style="strokeWidth=2;html=1;shape=mxgraph.flowchart.decision;whiteSpace=wrap;" vertex="1" parent="1">
          <mxGeometry x="270" y="1260" width="100" height="100" as="geometry" />
        </mxCell>
      </root>
    </mxGraphModel>
  </diagram>
</mxfile>
